<svg width="131" height="131" viewBox="0 0 131 131" fill="none" xmlns="http://www.w3.org/2000/svg">
<path fill-rule="evenodd" clip-rule="evenodd" d="M131 0H0V130.983H77.9762H78.1068C80.6119 130.11 114.135 95.5657 131 77.9661V0Z" fill="#B80F3C"/>
<path d="M68.072 71V66.744C67.88 67.1707 67.3893 67.7893 66.6 68.6C65.832 69.4107 64.808 70.1467 63.528 70.808C62.248 71.448 60.7547 71.768 59.048 71.768C56.488 71.768 54.248 71.1493 52.328 69.912C50.408 68.6533 48.9147 66.9787 47.848 64.888C46.7813 62.776 46.248 60.44 46.248 57.88C46.248 55.32 46.7813 52.9947 47.848 50.904C48.9147 48.792 50.408 47.1067 52.328 45.848C54.248 44.5893 56.488 43.96 59.048 43.96C60.6907 43.96 62.1307 44.2267 63.368 44.76C64.6053 45.272 65.608 45.8907 66.376 46.616C67.144 47.32 67.6773 47.9707 67.976 48.568V44.728H77.64V71H68.072ZM55.784 57.88C55.784 59.0747 56.0613 60.152 56.616 61.112C57.1707 62.0507 57.9067 62.7867 58.824 63.32C59.7627 63.8533 60.7973 64.12 61.928 64.12C63.1013 64.12 64.136 63.8533 65.032 63.32C65.928 62.7867 66.632 62.0507 67.144 61.112C67.6773 60.152 67.944 59.0747 67.944 57.88C67.944 56.6853 67.6773 55.6187 67.144 54.68C66.632 53.72 65.928 52.9733 65.032 52.44C64.136 51.8853 63.1013 51.608 61.928 51.608C60.7973 51.608 59.7627 51.8853 58.824 52.44C57.9067 52.9733 57.1707 53.72 56.616 54.68C56.0613 55.6187 55.784 56.6853 55.784 57.88Z" fill="#100612"/>
<path d="M61.8413 84.4885C57.3829 84.3343 53.0451 83.4394 50.0038 80.3008L53.7106 76.206C54.6096 77.0772 55.5405 77.7871 56.5955 78.3115C58.1206 79.0697 59.7853 79.3817 61.7895 79.3817C63.5422 79.3817 65.1138 79.0655 66.4487 78.293C67.5254 77.6699 68.3675 76.7965 69.012 75.7111H76.1518C75.3111 78.67 73.5223 80.7684 71.2694 82.1799C68.5617 83.8764 65.1361 84.6024 61.8413 84.4885Z" stroke="#100612" stroke-width="3" stroke-linecap="square"/>
</svg>
